<svg width="65" height="17" viewBox="0 0 95 17" fill="none" xmlns="http://www.w3.org/2000/svg">
<g clip-path="url(#clip0_15_36)">
<path d="M42.7402 0.702328C37.5922 0.438203 32.4254 0.519242 27.268 0.459213C27.2057 0.459213 27.1433 0.528246 27.0404 0.588274C27.0404 1.76483 27.0342 2.96239 27.0342 4.31903C30.9287 4.32803 34.6767 4.32803 38.4278 4.34904C39.1294 4.35205 39.8403 4.39407 40.5357 4.49311C41.6551 4.64919 42.3192 5.33951 42.3878 6.32097C42.4627 7.38947 41.917 8.14883 40.7758 8.45498C40.3205 8.57803 39.8247 8.60505 39.3508 8.60505C35.6371 8.60805 31.9203 8.59604 28.2066 8.58704C27.8168 8.58704 27.4271 8.58704 27.0654 8.58704C27.0591 11.4564 27.0529 14.1487 27.0467 16.8289C28.7304 16.8319 30.3113 16.8349 32.0076 16.8409C32.0076 15.4903 32.0138 14.2177 32.0169 12.9931C32.2009 12.9151 32.2664 12.8641 32.335 12.861C35.1569 12.855 37.9819 12.9001 40.8038 12.834C42.0168 12.807 43.2484 12.6479 44.4302 12.3838C45.8801 12.0597 46.8873 11.1382 47.1024 9.67955C47.3051 8.30791 47.461 6.90625 47.4111 5.5256C47.2989 2.48817 45.9238 0.870407 42.7495 0.705329" fill="#ED3533"/>
<path d="M11.9487 0.819382C3.405 0.831387 5.88391 9.11829 5.88391 9.11829H10.427L0 16.7989H12.0048C20.5485 16.7869 18.0696 8.5 18.0696 8.5H13.5264L23.9503 0.819382H11.9455H11.9487Z" fill="#ED3533"/>
<path d="M89.1504 0.0270127C89.0631 0.0270127 88.9789 0.0660311 88.9291 0.135064L85.1 5.06939C84.5356 5.79873 83.4006 5.79573 82.8362 5.06939L79.0165 0.117055C78.9635 0.0480226 78.8824 0.00900424 78.7951 0.00900424L73.4943 0C73.2667 0 73.1357 0.249117 73.2698 0.426201L81.2647 10.8081C81.2834 10.8621 81.299 10.9131 81.3177 10.9672L81.3021 16.7239C81.3021 16.8709 81.4268 16.991 81.5796 16.991L86.5468 17L86.5655 11.0122C86.5842 10.9582 86.6029 10.9071 86.6216 10.8531L95 0.0390184L89.1504 0.0270127Z" fill="#ED3533"/>
<path d="M64.9755 0.528241C63.3416 0.477217 61.7077 0.531243 60.0738 0.480219C59.3847 0.459209 59.023 0.690318 58.6925 1.26659C55.9049 6.15289 53.0799 11.0212 50.2673 15.8955C50.0927 16.1956 49.9524 16.5138 49.7341 16.949L53.6287 16.958H54.6857L55.3218 16.961H55.4029L55.8613 16.1566C55.9205 16.0666 55.9797 15.9705 56.039 15.8625C58.0533 12.2458 60.1549 8.67107 62.3407 4.88629C62.6307 5.37552 62.8178 5.67867 62.9924 5.98781C64.8914 9.38841 66.7809 12.792 68.6892 16.1866C68.8545 16.4807 69.1258 16.934 69.3659 16.943C71.1151 17.012 72.8675 16.985 74.7633 16.988C71.7637 11.5314 68.8732 6.25494 65.9422 0.999463C65.7987 0.744343 65.3123 0.540247 64.9755 0.528241Z" fill="#ED3533"/>
</g>
<defs>
<clipPath id="clip0_15_36">
<rect width="95" height="17" fill="white"/>
</clipPath>
</defs>
</svg>
